<svg width="50" height="25" fill="none" xmlns="http://www.w3.org/2000/svg">
    <path
            d="M31.664 6.06a3 3 0 0 0-4.726-3.697L14.411 18.374a3 3 0 1 0 4.725 3.698L31.664 6.06Z"
            stroke="#2DD4BF"
            stroke-miterlimit="10"
    />
    <path
            d="M43.706 1.855a3.003 3.003 0 0 0-4.21.51l-7.19 9.2v-7.35c0-1.65-1.35-3-3-3s-3 1.35-3 3v16c0 .74.29 1.42.74 1.95.12.14.24.26.38.38.02.02.03.04.05.05.01 0 .03.01.04.02.11.08.23.15.35.22.06.04.12.07.19.1.09.04.18.07.27.1.1.04.21.07.31.1l.18.03c.15.03.3.04.45.05h.08c.88 0 1.75-.39 2.34-1.13l12.53-16.01c1.02-1.3.79-3.19-.51-4.21v-.01ZM19.102 6.06a3 3 0 1 0-4.726-3.697L1.85 18.375a3 3 0 1 0 4.725 3.697L19.102 6.06Z"
            stroke="#2DD4BF"
            stroke-miterlimit="10"
    />
</svg>